<svg viewBox="0 0 4096 4096" xmlns="http://www.w3.org/2000/svg"
    id="Asking-Question-4--Streamline-Brooklyn.svg" height="4096" width="4096">
    <desc>Asking Question 4 Streamline Illustration: https://streamlinehq.com</desc>
    <path
        d="M2083.9219200000002 2172.47744a144.85504 144.85504 0 0 0 -44.216319999999996 33.85344c-10.05568 10.526720000000001 -27.60704 27.27936 -19.06688 42.90560000000001a8.8064 8.8064 0 0 0 7.61856 4.38272c15.626240000000001 -0.22527999999999998 22.75328 -19.74272 31.62112 -30.1056a260.56704 260.56704 0 0 1 37.928960000000004 -32.9728c11.10016 -8.92928 -3.01056 -22.773760000000003 -13.885440000000001 -18.06336Z"
        fill="#ffffff" stroke-width="1"></path>
    <path
        d="M2124.96384 2207.49824c-14.335999999999999 -8.396799999999999 -32.44032 7.74144 -42.22976 17.3056a104.79616 104.79616 0 0 0 -28.671999999999997 44.38016 13.49632 13.49632 0 0 0 24.576 10.38336 208.54784 208.54784 0 0 1 26.27584 -35.307520000000004c8.58112 -8.192 23.87968 -16.384 24.207359999999998 -29.511680000000002a8.31488 8.31488 0 0 0 -4.15744 -7.2499199999999995Z"
        fill="#ffffff" stroke-width="1"></path>
    <path
        d="M2115.87072 2261.2992000000004a250.14272000000003 250.14272000000003 0 0 0 -25.98912 44.052479999999996c-7.2499199999999995 16.6912 15.40096 31.232 25.088 14.6432 11.386880000000001 -19.456 20.15232 -44.38016 39.34208 -57.343999999999994 18.165760000000002 -12.24704 -8.66304 -43.540479999999995 -38.440960000000004 -1.35168Z"
        fill="#ffffff" stroke-width="1"></path>
    <path
        d="M2133.34016 2312.8678400000003c-0.8396800000000001 61.29664 -50.176 95.39584 -87.1424 136.76544 -30.003200000000003 33.566720000000004 -51.998720000000006 82.432 -40.38656 128.04095999999998a11.44832 11.44832 0 0 0 21.89312 0 243.71200000000002 243.71200000000002 0 0 1 25.845760000000002 -83.96799999999999 471.1424 471.1424 0 0 1 58.32704 -64.49152000000001c30.208000000000002 -32.317440000000005 56.381440000000005 -76.63616 30.26944 -118.64064a4.75136 4.75136 0 0 0 -8.8064 2.2937600000000002Z"
        fill="#ffffff" stroke-width="1"></path>
    <path
        d="M2216.20224 1827.28704c27.68896 -10.0352 53.452799999999996 -30.72 48.926719999999996 -63.36512 -3.19488 -22.81472 -37.62176 -54.702079999999995 -58.32704 -30.371840000000002a10.62912 10.62912 0 0 0 4.648960000000001 17.5104c14.90944 4.54656 30.167040000000004 3.39968 28.32384 24.760320000000004a48.78336 48.78336 0 0 1 -29.47072 37.23264c-7.7824 4.01408 -2.56 17.26464 5.8982399999999995 14.2336Z"
        fill="#ffffff" stroke-width="1"></path>
    <path
        d="M2019.328 1635.5942400000001a73.37984 73.37984 0 0 0 -2.048 42.86464 19.43552 19.43552 0 0 0 38.01088 -5.14048 73.13408000000001 73.13408000000001 0 0 0 -13.2096 -40.693760000000005 12.6976 12.6976 0 0 0 -22.75328 2.9696Z"
        fill="#ffffff" stroke-width="1"></path>
    <path
        d="M2278.68672 1628.63104a33.40288 33.40288 0 0 0 -7.61856 25.33376 69.77536 69.77536 0 0 0 4.42368 28.815360000000002 18.90304 18.90304 0 0 0 34.22208 -4.48512 71.20896 71.20896 0 0 0 -2.4371199999999997 -29.24544 32.50176 32.50176 0 0 0 -13.16864 -22.528000000000002 13.45536 13.45536 0 0 0 -15.42144 2.1094399999999998Z"
        fill="#ffffff" stroke-width="1"></path>
    <path
        d="M2268.16 1542.61504c33.751039999999996 32.50176 34.46784 55.74656 53.452799999999996 63.36512a11.264000000000001 11.264000000000001 0 0 0 13.7216 -7.7824c5.38624 -24.576 -32.27648 -55.97184 -55.29600000000001 -70.98368a9.87136 9.87136 0 0 0 -11.8784 15.40096Z"
        fill="#ffffff" stroke-width="1"></path>
    <path
        d="M1990.08256 1625.2108799999999a178.60608 178.60608 0 0 1 29.34784 -40.26368c10.24 -11.509760000000002 24.064 -19.68128 27.7504 -35.51232a9.4208 9.4208 0 0 0 -8.86784 -11.673599999999999c-19.1488 -2.17088 -32.6656 14.70464 -43.008 28.52864a129.536 129.536 0 0 0 -21.03296 52.28544c-2.048 9.07264 11.386880000000001 15.95392 15.81056 6.6355200000000005Z"
        fill="#ffffff" stroke-width="1"></path>
    <path
        d="M2102.6816 1985.59744c35.04128 13.987840000000002 81.92 29.26592 119.296 16.11776a9.50272 9.50272 0 0 0 0 -18.165760000000002c-23.16288 -7.2499199999999995 -52.797439999999995 -2.99008 -114.81088 -14.21312a8.437759999999999 8.437759999999999 0 0 0 -4.48512 16.261120000000002Z"
        fill="#ffffff" stroke-width="1"></path>
    <path
        d="M1847.9718400000002 2304.69632c-16.793599999999998 -25.3952 -34.590720000000005 -58.38848 -64.59392 -70.63552a43.90912 43.90912 0 0 0 -57.507839999999995 30.57664c-19.046400000000002 58.42944000000001 33.77152 115.26144000000001 84.54144000000001 135.4752 11.182080000000001 4.48512 19.72224 -12.12416 11.509760000000002 -19.78368 -27.29984 -25.415680000000002 -67.03104 -39.85408 -71.41376000000001 -82.49343999999999 -1.08544 -10.58816 0.69632 -30.167040000000004 13.29152 -34.816 9.6256 -3.56352 18.595840000000003 6.2668800000000005 25.1904 11.40736 16.384 12.6976 34.05824 24.22784 50.01216 37.25312 4.5875200000000005 3.72736 12.82048 -1.1468800000000001 8.97024 -6.9836800000000006Z"
        fill="#ffffff" stroke-width="1"></path>
    <path
        d="M2161.11104 2417.5616c52.61312 -15.48288 129.57696 -61.992960000000004 115.85536 -128.65536a55.62368000000001 55.62368000000001 0 0 0 -57.73312 -46.91968 73.09312 73.09312 0 0 0 -37.724160000000005 18.10432 303.45216 303.45216 0 0 0 -33.03424 27.320320000000002 12.00128 12.00128 0 0 0 8.37632 20.21376 40.83712 40.83712 0 0 0 35.9424 -14.92992c8.97024 -7.61856 22.05696 -22.323200000000003 36.003840000000004 -18.30912 15.13472 4.36224 18.432000000000002 23.22432 15.89248 36.20864 -7.45472 38.42048 -55.132160000000006 79.17568 -87.47008 97.79200000000002a5.03808 5.03808 0 0 0 3.8912 9.175040000000001Z"
        fill="#ffffff" stroke-width="1"></path>
    <path
        d="M3202.39616 2925.4246399999997c-25.292800000000003 -64.8192 -73.17504 -117.08416 -121.46688 -165.72416 -227.18464 -228.84351999999998 -485.376 -481.50527999999997 -811.80672 -519.1065600000001 -6.9836800000000006 -0.86016 -8.47872 10.79296 -1.61792 12.288 294.31808 65.26975999999999 520.66304 265.56416 728.5145600000001 472.33024 96.37888000000001 95.88736000000002 219.46367999999998 202.93632000000002 182.43583999999998 354.30400000000003 -28.48768 116.51072 -144.91648 257.39264 -229.96992 342.7328 -156.75392 157.24544 -267.18208 202.6496 -368.64 264.192a2255.27808 2255.27808 0 0 0 42.88512 -720.8960000000001 612.7616 612.7616 0 0 0 122.73664000000001 105.04191999999999c-28.897280000000002 18.92352 -95.55968000000001 115.48672 -94.96575999999999 177.02912a12.12416 12.12416 0 0 0 22.4256 6.144c9.66656 -15.50336 15.07328 -33.71008 23.736320000000003 -49.930240000000005 59.391999999999996 -111.06304 64.43008 -93.9008 76.8 -117.63712 45.2608 23.08096 102.72768 45.62944 153.088 33.792a8.02816 8.02816 0 0 0 2.048 -14.58176c-46.837759999999996 -23.22432 -100.4544 -29.47072 -148.33664000000002 -51.732479999999995a823.95136 823.95136 0 0 1 -160.39936 -114.68799999999999 1745.36704 1745.36704 0 0 0 -46.73536 -245.90336c-2.048 -7.9872000000000005 -13.434880000000001 -4.48512 -12.16512 3.3587200000000004 127.52896000000001 782.2131200000001 -95.17056000000001 1186.11968 -97.13664000000001 1285.28384a9.87136 9.87136 0 0 0 18.26816 4.9152c11.120640000000002 -16.05632 52.899840000000005 -113.11104 89.90719999999999 -266.09664000000004a1063.28064 1063.28064 0 0 0 198.8608 -110.2848 1369.16992 1369.16992 0 0 0 311.95135999999997 -294.40000000000003c89.53856 -115.87584000000001 172.91263999999998 -253.87008000000003 119.58272000000001 -390.43072Z"
        fill="#ffffff" stroke-width="1"></path>
    <path
        d="M2870.3948800000003 1977.2825599999999c31.29344 -1.76128 64.9216 22.323200000000003 47.349759999999996 55.889920000000004 -15.29856 29.24544 -43.45856 24.576 -68.44416 11.73504 -28.52864 -14.60224 -72.21248 -29.9008 -90.91072 7.84384a11.96032 11.96032 0 0 0 9.50272 16.158720000000002c14.76608 3.19488 28.18048 -5.795839999999999 42.7008 -2.048a257.20832 257.20832 0 0 1 34.816 17.2032c82.45248 35.2256 139.48928 -54.538239999999995 100.06528 -107.35616a55.152640000000005 55.152640000000005 0 0 0 -80.32256000000001 -11.73504 7.024640000000001 7.024640000000001 0 0 0 5.24288 12.30848Z"
        fill="#38a1ff" stroke-width="1"></path>
    <path
        d="M2719.15008 2093.056a15.319040000000001 15.319040000000001 0 0 0 -12.062719999999999 -28.16 15.319040000000001 15.319040000000001 0 0 0 12.062719999999999 28.16Z"
        fill="#38a1ff" stroke-width="1"></path>
    <path
        d="M1361.3056 904.04864a48.68096 48.68096 0 0 1 46.42816 -54.43584c35.90144 2.39616 40.38656 35.96288 37.08928 64.9216 -3.8297600000000003 33.792 -11.01824 112.06656000000001 42.53696 111.63647999999999a16.240640000000003 16.240640000000003 0 0 0 13.905920000000002 -24.22784c-9.564160000000001 -16.6912 -19.94752 -24.90368 -20.48 -45.87520000000001 -0.43008 -18.82112 5.07904 -37.191680000000005 5.672960000000001 -55.95136000000001A82.57536 82.57536 0 0 0 1441.95584 819.2a70.9632 70.9632 0 0 0 -98.97984000000001 87.44959999999999c3.29728 9.09312 19.41504 8.6016 18.3296 -2.60096Z"
        fill="#38a1ff" stroke-width="1"></path>
    <path
        d="M1532.45696 1061.08928a17.28512 17.28512 0 0 0 0 -34.54976 17.28512 17.28512 0 0 0 0 34.54976Z"
        fill="#38a1ff" stroke-width="1"></path>
    <path
        d="M1032.97024 2127.2371200000002a29.42976 29.42976 0 0 1 31.62112 -48.10752000000001c50.66752 14.92992 22.1184 89.60000000000001 71.68 121.07776 46.71488 29.777919999999998 72.64256 -22.364160000000002 43.315200000000004 -29.511680000000002 -19.3536 -4.7104 -28.815360000000002 -6.32832 -34.816 -28.057600000000004 -4.85376 -18.001920000000002 -7.55712 -87.61344 -87.47008 -103.40352000000001a57.91744 57.91744 0 0 0 -62.91456 42.475519999999996 50.40128 50.40128 0 0 0 28.057600000000004 60.928000000000004 9.44128 9.44128 0 0 0 10.526720000000001 -15.40096Z"
        fill="#38a1ff" stroke-width="1"></path>
    <path
        d="M1228.10368 2185.6256c-2.53952 1.92512 -7.55712 5.55008 -8.54016 8.04864a17.5104 17.5104 0 0 0 14.99136 25.02656 18.18624 18.18624 0 1 0 -6.4512 -33.0752Z"
        fill="#38a1ff" stroke-width="1"></path>
    <path
        d="M704.1024000000001 1752.7808c-0.24576 -15.13472 3.8912 -33.23904 22.65088 -34.2016 20.48 -1.08544 24.371199999999998 20.64384 30.208000000000002 35.34848 22.97856 57.835519999999995 69.87776 32.3584 52.10112 14.7456a81.16224 81.16224 0 0 1 -22.528000000000002 -29.40928 149.95456000000001 149.95456000000001 0 0 0 -12.5952 -28.48768 54.661120000000004 54.661120000000004 0 0 0 -47.452160000000006 -24.104960000000002 49.152 49.152 0 0 0 -41.67680000000001 73.13408000000001 10.67008 10.67008 0 0 0 19.29216 -7.024640000000001Z"
        fill="#38a1ff" stroke-width="1"></path>
    <path
        d="M854.7942400000001 1813.93408a16.19968 16.19968 0 0 0 5.57056 -31.90784 16.19968 16.19968 0 0 0 -5.57056 31.90784Z"
        fill="#38a1ff" stroke-width="1"></path>
    <path
        d="M2623.1808 728.2688c36.08576 18.28864 41.67680000000001 58.920959999999994 1.90464 76.5952 -23.1424 10.24 -45.731840000000005 20.76672 -50.3808 47.90272 -3.72736 21.89312 21.89312 23.347199999999997 25.620479999999997 19.78368 9.6256 -9.09312 8.192 -20.66432 20.04992 -28.671999999999997 8.86784 -6.144 19.84512 -8.97024 29.081599999999998 -14.335999999999999 59.12576 -34.67264 39.69024 -118.41536 -21.4016 -119.1936a9.70752 9.70752 0 0 0 -4.8742399999999995 17.92Z"
        fill="#38a1ff" stroke-width="1"></path>
    <path
        d="M2586.74688 927.7439999999999a13.37344 13.37344 0 0 0 0 -26.74688 13.37344 13.37344 0 0 0 0 26.74688Z"
        fill="#38a1ff" stroke-width="1"></path>
    <path
        d="M3307.008 1620.1932800000002a25.14944 25.14944 0 0 1 24.371199999999998 33.62816 45.50656 45.50656 0 0 1 -35.14368 26.97216c-25.292800000000003 2.74432 -46.16192 -11.89888 -69.07904 6.758400000000001a15.36 15.36 0 0 0 9.8304 27.66848 167.6288 167.6288 0 0 1 38.17472 0.53248 81.16224 81.16224 0 0 0 31.027199999999997 0.8192 82.944 82.944 0 0 0 55.029759999999996 -41.67680000000001c19.29216 -39.03488 -13.45536 -91.62752 -58.42944000000001 -75.20256a10.58816 10.58816 0 0 0 4.2188799999999995 20.50048Z"
        fill="#38a1ff" stroke-width="1"></path>
    <path
        d="M3198.9759999999997 1737.37984a14.7456 14.7456 0 0 0 -9.8304 -27.79136 14.7456 14.7456 0 0 0 9.8304 27.79136Z"
        fill="#38a1ff" stroke-width="1"></path>
    <path
        d="M1265.84832 1599.91808c55.66464 -89.29280000000001 -103.36256 -157.57312 -129.6384 -67.9936a79.54432 79.54432 0 0 0 13.352960000000001 70.47167999999999 71.3728 71.3728 0 0 0 116.28544 -2.47808Z"
        fill="#38a1ff" stroke-width="1"></path>
    <path
        d="M960.0614400000001 1447.81312c-60.66176000000001 -40.12032 -124.29312 -99.7376 -106.16832000000001 -180.22400000000002 15.50336 -68.77184 109.09696 -171.8272 42.434560000000005 -244.28544000000002a115.97824000000001 115.97824000000001 0 0 0 -77.35296000000001 -34.32448c-117.47328 -8.192 -153.84575999999998 119.45984 -117.84191999999999 208.54784 1.39264 3.56352 10.24 21.25824 6.53312 24.86272 -0.69632 0.7168000000000001 -138.05568 -7.35232 -143.36 -10.05568 -10.24 -5.24288 -32.768 -95.55968000000001 -12.86144 -170.53696 10.36288 -39.19872 28.917759999999998 -129.67936 141.98784 -177.58208 89.19040000000001 -37.7856 197.42720000000003 -35.51232 274.0224 23.736320000000003a256.79872 256.79872 0 0 1 90.11200000000001 259.31776c-11.93984 47.4112 -52.28544 120.36095999999999 -17.87904 175.02208 24.1664 38.37952000000001 107.82719999999999 93.67551999999999 108.70784 96.256A293.1712 293.1712 0 0 1 1078.272 1505.28c-9.89184 6.737920000000001 -89.088 -38.17472 -118.21056 -57.46688Z"
        fill="#38a1ff" stroke-width="1"></path>
    <path
        d="M856.7603200000001 1358.1312a228.84351999999998 228.84351999999998 0 0 0 17.28512 72.47872000000001 1269.248 1269.248 0 0 0 130.10944 94.88384c23.79776 13.45536 32.54272 13.557760000000002 56.606719999999996 -8.76544 -64.88064 -23.736320000000003 -155.0336 -77.74208 -204.00128 -158.59712Z"
        fill="#38a1ff" stroke-width="1"></path>
    <path
        d="M845.5168 1035.07968A136.90879999999999 136.90879999999999 0 0 1 901.12 1109.8521600000001c26.29632 -5.16096 5.46816 -99.84 -69.20192 -110.05951999999999 -43.95008 -6.00064 -80.11776 7.8848 -68.11648 17.28512 6.2464 4.8742399999999995 36.74112 -6.5536 81.71520000000001 18.001920000000002Z"
        fill="#38a1ff" stroke-width="1"></path>
    <path
        d="M734.04416 1280.6144000000002c-0.69632 0.59392 -124.10879999999999 -6.8608 -126.38208 -7.5776a130.8672 130.8672 0 0 1 -37.5808 -46.059520000000006c1.8432 -2.3142400000000003 134.02112 6.88128 139.264 9.09312a298.12736 298.12736 0 0 1 24.69888 44.544Z"
        fill="#38a1ff" stroke-width="1"></path>
    <path
        d="M1111.57248 1600.34816a75.34591999999999 75.34591999999999 0 0 0 49.64352 44.70784c38.37952000000001 6.53312 60.17024000000001 -7.2499199999999995 52.224 -6.59456a87.8592 87.8592 0 0 1 -54.00576 -13.29152c-43.827200000000005 -25.68192 -33.566720000000004 -94.65856 -33.566720000000004 -94.65856a149.504 149.504 0 0 0 -16.22016 26.43968 84.56191999999999 84.56191999999999 0 0 0 1.92512 43.39712000000001Z"
        fill="#38a1ff" stroke-width="1"></path>
    <path
        d="M2049.4336 945.3567999999999c92.34432000000001 -18.1248 39.85408 -163.84 -34.816 -126.21824000000001a71.20896 71.20896 0 0 0 -37.888000000000005 51.77344 63.75424 63.75424 0 0 0 72.704 74.4448Z"
        fill="#38a1ff" stroke-width="1"></path>
    <path
        d="M1961.984 652.6976000000001c-10.79296 -64.12288 -10.752 -142.11072000000001 52.920320000000004 -179.46624a314.81856 314.81856 0 0 1 72.23296 -26.624000000000002c47.67744 -13.987840000000002 108.81024 -35.88096 113.29536 -94.92479999999999a103.6288 103.6288 0 0 0 -24.82176 -71.51616c-66.37568 -81.77664 -172.032 -27.566080000000003 -208.26112 50.3808 -1.4745599999999999 3.09248 -7.68 19.68128 -12.288 19.47648 -0.9216 0 -79.52384 -94.65856 -80.97792000000001 -99.7376 -2.74432 -9.89184 42.434560000000005 -79.872 103.56736000000001 -112.64a208.896 208.896 0 0 1 202.752 -15.72864c79.13472 35.18464 143.79008 107.29472 151.90016 193.51552a229.60128 229.60128 0 0 1 -114.33984000000001 217.31328000000002c-39.669760000000004 21.95456 -110.59200000000001 39.3216 -125.29664000000001 95.23200000000001 -10.24 39.19872 4.648960000000001 127.6928 3.56352 129.80224a262.86080000000004 262.86080000000004 0 0 1 -99.71712 7.188479999999999c-10.32192 -2.3142400000000003 -29.2864 -81.46944 -34.52928 -112.27136Z"
        fill="#38a1ff" stroke-width="1"></path>
    <path
        d="M1957.49888 530.432a206.19263999999998 206.19263999999998 0 0 0 -36.864000000000004 55.56224 1132.15488 1132.15488 0 0 0 17.5104 142.97088c5.734400000000001 23.79776 10.97728 29.57312 40.325120000000005 31.6416A369.95072 369.95072 0 0 1 1957.49888 530.432Z"
        fill="#38a1ff" stroke-width="1"></path>
    <path
        d="M2161.6639999999998 325.632a122.30656 122.30656 0 0 1 -14.86848 81.92c19.53792 14.069760000000002 68.54656 -57.58976 29.61408 -112.43520000000001 -22.91712 -32.37888 -54.04671999999999 -47.5136 -52.920320000000004 -33.95584 0.59392 7.12704 26.76736 20.1728 38.17472 64.47104Z"
        fill="#38a1ff" stroke-width="1"></path>
    <path
        d="M1933.3120000000001 402.8416c-0.79872 -0.1024 -71.35232 -85.2992 -72.21248 -87.18336a117.61664 117.61664 0 0 1 7.14752 -52.71552c2.6419200000000003 -0.2048 77.35296000000001 91.75040000000001 79.13472 96.50175999999999a276.04992 276.04992 0 0 1 -14.069760000000002 43.39712000000001Z"
        fill="#38a1ff" stroke-width="1"></path>
    <path
        d="M1954.8979199999999 844.86144a67.584 67.584 0 0 0 1.1264 59.78112c19.189760000000003 29.04064 41.51296000000001 34.918400000000005 36.22912 30.12608a78.45888000000001 78.45888000000001 0 0 1 -24.268800000000002 -43.4176c-10.01472 -44.318720000000006 41.349120000000006 -79.72864 41.349120000000006 -79.72864a136.02816 136.02816 0 0 0 -27.19744 5.50912 74.9568 74.9568 0 0 0 -27.238400000000002 27.729920000000003Z"
        fill="#38a1ff" stroke-width="1"></path>
    <path
        d="M2788.82304 1564.5081599999999c92.42623999999999 54.43584 157.83936 -109.4656 65.8432 -133.89824000000002a81.2032 81.2032 0 0 0 -71.53664 15.52384 72.64256 72.64256 0 0 0 5.693440000000001 118.37440000000001Z"
        fill="#38a1ff" stroke-width="1"></path>
    <path
        d="M2935.74656 1248.82944c39.2192 -62.89408 98.304 -129.31072 180.85888 -112.98816000000001 70.36928 13.885440000000001 177.97119999999998 106.7008 250.08128000000002 36.864000000000004A118.12864 118.12864 0 0 0 3399.6800000000003 1092.87424c5.2633600000000005 -119.88992 -125.76768 -153.6 -215.67488000000003 -114.68799999999999 -3.56352 1.57696 -21.4016 10.97728 -25.128960000000003 7.35232 -0.75776 -0.69632 3.7888 -140.86144000000002 6.43072 -146.26816000000002 5.07904 -10.48576 96.54272000000002 -35.90144 173.46560000000002 -17.67424 40.20224 9.50272 132.9152 26.05056 184.70912 140.00128 40.96 89.88672000000001 41.41056 200.23296 -16.91648 279.90016a261.55008000000004 261.55008000000004 0 0 1 -261.85728 98.75456c-48.64 -10.89536 -124.02688 -50.094080000000005 -178.81088 -13.619200000000001 -38.440960000000004 25.620479999999997 -92.61056 112.39424000000001 -95.1296 113.3568a299.86816 299.86816 0 0 1 -90.50112 -69.30432c-7.12704 -9.80992 36.59776 -91.58656 55.480320000000006 -121.85600000000001Z"
        fill="#38a1ff" stroke-width="1"></path>
    <path
        d="M3024.3840000000005 1141.20704a233.472 233.472 0 0 0 -73.40032000000001 19.496959999999998 1303.22432 1303.22432 0 0 0 -93.24544 135.168c-13.08672 24.576 -12.963840000000001 33.52576 10.4448 57.46688 22.364160000000002 -66.84671999999999 75.12064000000001 -160.13312 156.20096 -212.13184Z"
        fill="#38a1ff" stroke-width="1"></path>
    <path
        d="M3353.27232 1121.1366400000002a139.12064 139.12064 0 0 1 -74.752 58.65472c6.0416 26.80832 101.80608000000001 2.53952 110.26432000000001 -73.46176000000001 4.97664 -45.056000000000004 -10.24 -81.408 -19.41504 -68.97664 -4.68992 6.38976 7.7824 37.31456 -16.09728 83.78368Z"
        fill="#38a1ff" stroke-width="1"></path>
    <path
        d="M3100.18048 1014.0672000000001c-0.59392 -0.7168000000000001 3.6864 -126.70976 4.38272 -129.024a133.71392 133.71392 0 0 1 45.93664 -39.5264c2.4371199999999997 1.8432 -3.46112 136.76544 -5.57056 142.17216000000002a312.9344 312.9344 0 0 1 -44.7488 26.37824Z"
        fill="#38a1ff" stroke-width="1"></path>
    <path
        d="M2784.27648 1407.26272a76.65664 76.65664 0 0 0 -44.216319999999996 51.834880000000005c-5.632000000000001 39.23968 8.97024 61.132799999999996 8.192 53.0432a89.72288 89.72288 0 0 1 12.16512 -55.41888c25.02656 -45.34272 95.55968000000001 -36.700160000000004 95.55968000000001 -36.700160000000004a152.69888 152.69888 0 0 0 -27.3408 -15.831040000000002 87.16288 87.16288 0 0 0 -44.35968 3.072Z"
        fill="#38a1ff" stroke-width="1"></path>
    <path
        d="M2200.5350399999998 2830.336c-17.2032 -97.03424000000001 -37.4784 -192.69632000000001 -62.054399999999994 -288.11264 -2.49856 -9.728 -16.97792 -5.57056 -14.99136 4.096a4269.93664 4269.93664 0 0 1 86.87616 1023.56992c-3.6249599999999997 96.256 -18.26816 193.35168000000002 -15.626240000000001 289.56672a12.47232 12.47232 0 0 0 24.371199999999998 3.29728c34.14016 -132.58752 55.480320000000006 -614.17472 -18.57536 -1032.4172800000001Z"
        fill="#ffffff" stroke-width="1"></path>
    <path
        d="M2339.77856 2927.1040000000003a39.28064 39.28064 0 0 0 4.54656 -25.784319999999997 32.4608 32.4608 0 0 0 -23.674879999999998 -23.20384c-18.1248 -3.29728 -30.289920000000002 14.60224 -30.12608 31.191039999999997a27.156480000000002 27.156480000000002 0 0 0 49.2544 17.79712Z"
        fill="#ffffff" stroke-width="1"></path>
    <path
        d="M2352.08704 3247.69792a36.1472 36.1472 0 0 0 -25.3952 6.144 36.59776 36.59776 0 0 0 8.64256 52.65408000000001c49.33632 20.13184 52.32640000000001 -52.46976 16.75264 -58.79808Z"
        fill="#ffffff" stroke-width="1"></path>
    <path
        d="M2362.6956800000003 3563.39712a27.136 27.136 0 0 0 -39.833600000000004 -15.68768 29.42976 29.42976 0 0 0 -10.24 18.98496c-0.65536 21.89312 16.22016 51.507200000000005 40.96 34.48832a30.96576 30.96576 0 0 0 9.1136 -37.7856Z"
        fill="#ffffff" stroke-width="1"></path>
    <path
        d="M2295.808 1072.37376c-47.104 9.46176 -83.02592000000001 42.639359999999996 -182.00576 59.740159999999996 -146.28864 25.3952 -287.19104 -48.885760000000005 -386.76480000000004 38.912a124.68224000000001 124.68224000000001 0 0 0 -40.96 120.17664c-58.449920000000006 8.66304 -132.9152 137.93280000000001 -64.49152000000001 253.1328a159.744 159.744 0 0 0 58.920959999999994 61.091840000000005c-77.53728 37.15072 -96.256 174.08 -10.36288 242.2784a162.85696000000002 162.85696000000002 0 0 0 74.26048 33.792c0.26624 16.384 37.0688 233.984 39.79264 249.61024a744.7347199999999 744.7347199999999 0 0 0 19.2512 101.74464 13.660160000000001 13.660160000000001 0 0 0 26.624000000000002 -3.6249599999999997 666.35776 666.35776 0 0 0 -14.151679999999999 -91.62752c-1.86368 -10.608640000000001 -43.847680000000004 -245.76 -47.104 -255.83616000000004A69.36576000000001 69.36576000000001 0 0 0 1789.9520000000002 1875.9679999999998a16.384 16.384 0 0 0 -3.91168 -29.777919999999998c-31.78496 -9.8304 -61.17376 -7.84384 -89.02656 -30.1056 -65.65888 -52.61312 -47.104 -161.56672 16.384 -180.49024000000003 11.89888 15.03232 28.057600000000004 29.081599999999998 37.25312 42.434560000000005a702.4639999999999 702.4639999999999 0 0 1 36.06528 70.47167999999999c12.63616 23.79776 49.5616 27.62752 73.56416 26.624000000000002a12.922880000000001 12.922880000000001 0 0 0 12.288 -16.261120000000002 962.06848 962.06848 0 0 1 -44.216319999999996 -202.11712 186.01984000000002 186.01984000000002 0 0 0 126.58688000000001 -104.71424000000002c142.76608000000002 79.7696 300.05248 64.22528 402.65728 -5.5296 -7.2499199999999995 136.02816 -1.76128 272.91648000000004 -3.97312 409.00608 -1.8432 117.43232 6.02112 174.2848 -27.19744 214.54848 -49.68448000000001 60.25216 -127.26272000000002 46.960640000000005 -194.17088 32.07168 38.1952 -34.816 46.40768 -44.42112 48.59904 -56.238080000000004a30.14656 30.14656 0 0 0 -33.894400000000005 -33.93536c-19.82464 0.53248 -38.912 13.25056 -107.88864 49.2544 -16.384 -15.585280000000001 -42.55744 -16.261120000000002 -89.14944 -61.44 -3.6249599999999997 -3.46112 -9.8304 1.024 -7.08608 5.40672a201.3184 201.3184 0 0 0 41.082879999999996 48.66048 179.4048 179.4048 0 0 0 29.10208 21.03296c-117.63712 63.2832 -108.78976 103.46495999999999 -135.84384 243.4048a754.3603200000001 754.3603200000001 0 0 0 -19.2512 126.11584c0 2.74432 4.2188799999999995 4.25984 5.50912 1.4540799999999998 38.7072 -83.96799999999999 49.4592 -223.78495999999998 77.94688000000001 -274.88256 21.319679999999998 -38.11328 64.16384000000001 -55.62368000000001 147.88608 -101.51936 10.46528 -5.754880000000001 56.27904000000001 -34.18112 63.48800000000001 -29.55264 11.673599999999999 7.6595200000000006 -2.56 17.94048 -7.35232 22.855680000000003 -47.4112 48.537600000000005 -103.56736000000001 88.53504000000001 -149.36064000000002 138.6496a9.03168 9.03168 0 0 0 12.75904 12.75904c32.50176 -27.934720000000002 63.5904 -57.81504 95.37536 -86.56896a340.37760000000003 340.37760000000003 0 0 0 99.92192 21.155839999999998 121.93791999999999 121.93791999999999 0 0 0 1.72032 28.48768 53.98528 53.98528 0 0 0 21.155839999999998 44.07296 13.76256 13.76256 0 0 0 18.432000000000002 -4.8742399999999995 64.88064 64.88064 0 0 0 -0.45055999999999996 -46.12096c-1.35168 -7.35232 -1.72032 -14.847999999999999 -2.9286399999999997 -22.03648a174.81727999999998 174.81727999999998 0 0 0 82.45248 -28.671999999999997c62.58688 -43.008 65.536 -115.0976 64.06144 -184.32 -7.68 -337.92 -6.79936 -420.98688000000004 -12.63616 -502.37440000000004 178.64704000000003 -142.35648 71.45472 -390.92224000000004 -80.09728 -360.52992Zm39.464960000000005 59.535360000000004c-15.95392 38.58432 -56.48384 55.82848 -94.55616 67.17439999999999a339.968 339.968 0 0 1 -128.86016 9.728 14.499839999999999 14.499839999999999 0 0 1 0 -28.95872 286.18752 286.18752 0 0 0 109.89568 -25.88672c31.08864 -13.742080000000001 58.9824 -37.84704 92.9792 -42.65984 10.83392 -1.51552 26.13248 7.29088 20.56192 20.60288Z"
        fill="#ffffff" stroke-width="1"></path>
    <path
        d="M2001.7151999999999 2633.37984c-71.68 -34.590720000000005 -165.27360000000002 -96.68608 -185.52831999999998 -174.08a17.24416 17.24416 0 0 0 -31.191039999999997 -4.096c-182.6816 297.34912 -280.45312 488.69376 -339.968 597.03296 -52.920320000000004 -42.84416 -61.44 -72.37631999999999 -82.432 -95.72352000000001 -8.54016 -9.46176 -21.831680000000002 0.75776 -19.78368 11.509760000000002 8.54016 44.64640000000001 53.248000000000005 82.26816000000001 92.16 102.54335999999999a532.80768 532.80768 0 0 0 -45.17888 105.63584000000002c-3.46112 12.43136 12.43136 17.08032 19.3536 8.192 40.529920000000004 -52.77696 112.82432000000001 -223.92831999999999 306.50368 -549.60128 28.48768 89.33376 127.75424000000001 145.57184 214.05696 164.59776000000002 24.576 5.40672 35.0208 -32.317440000000005 10.42432 -37.724160000000005a286.49472000000003 286.49472000000003 0 0 1 -122.12224 -58.65472c-35.38944 -29.593600000000002 -54.92736 -67.74784 -80.85504 -104.20224q27.402240000000003 -45.568000000000005 57.89696 -94.94528000000001c27.01312 63.13984000000001 117.84191999999999 134.2464 191.65184000000002 147.64032a1640.01792 1640.01792 0 0 1 -154.35776 599.08096c-78.92992000000001 163.84 -221.18400000000003 341.05343999999997 -424.44800000000004 319.81568 -318.03392 -33.50528 -471.61343999999997 -602.84928 -191.89759999999998 -931.6352 148.0704 -174.08 352.84992 -242.2784 489.69728000000003 -327.08608a8.192 8.192 0 0 0 -6.32832 -14.92992c-147.98848 46.2848 -362.31167999999997 162.36544 -482.54976000000005 288.93184a683.88864 683.88864 0 0 0 -177.58208 538.4601600000001c27.9552 295.69024 192.512 468.99199999999996 376.832 484.47488a441.9584 441.9584 0 0 0 14.335999999999999 137.64608c7.12704 27.136 49.663999999999994 159.35488 61.235200000000006 184.93439999999998a151.87968 151.87968 0 0 0 38.277120000000004 59.71968c9.6256 7.31136 27.50464 -1.24928 23.83872 -14.335999999999999 -18.26816 -66.048 -67.09248 -77.08672 -109.93664000000001 -366.7968 132.13696 -0.32768 271.40096 -81.14176 376.05375999999995 -255.16031999999998 125.8496 -209.26464 190.46400000000003 -463.1552 198.9632 -705.92512a14.52032 14.52032 0 0 0 -17.12128 -15.319040000000001Z"
        fill="#ffffff" stroke-width="1"></path>
</svg>